<mxfile host="65bd71144e">
    <diagram id="VmxgzMS0ozi97tRiIRKJ" name="第 1 页">
        <mxGraphModel dx="1090" dy="1694" grid="1" gridSize="10" guides="1" tooltips="1" connect="1" arrows="1" fold="1" page="1" pageScale="1" pageWidth="827" pageHeight="1169" background="#ffffff" math="0" shadow="0">
            <root>
                <mxCell id="0"/>
                <mxCell id="1" parent="0"/>
                <mxCell id="49" value="" style="rounded=0;whiteSpace=wrap;html=1;strokeColor=none;strokeWidth=2;fontSize=16;fillColor=#b1ddf0;" vertex="1" parent="1">
                    <mxGeometry x="849" y="471" width="630" height="130" as="geometry"/>
                </mxCell>
                <mxCell id="50" value="" style="rounded=0;whiteSpace=wrap;html=1;strokeColor=none;strokeWidth=2;fontSize=16;fillColor=#ffcccc;" vertex="1" parent="1">
                    <mxGeometry x="849" y="-29" width="630" height="430" as="geometry"/>
                </mxCell>
                <mxCell id="51" value="" style="rounded=0;whiteSpace=wrap;html=1;fillColor=#1ba1e2;fontColor=#000000;strokeColor=#006EAF;fontSize=16;" vertex="1" parent="1">
                    <mxGeometry x="839" y="-39" width="10" height="640" as="geometry"/>
                </mxCell>
                <mxCell id="52" value="" style="rounded=0;whiteSpace=wrap;html=1;fillColor=#1ba1e2;fontColor=#000000;strokeColor=#006EAF;fontSize=16;" vertex="1" parent="1">
                    <mxGeometry x="1479" y="-39" width="10" height="640" as="geometry"/>
                </mxCell>
                <mxCell id="53" value="服务器" style="text;html=1;strokeColor=none;fillColor=none;align=center;verticalAlign=middle;whiteSpace=wrap;rounded=0;fontColor=#000000;fontSize=24;" vertex="1" parent="1">
                    <mxGeometry x="1499" y="-39" width="40" height="130" as="geometry"/>
                </mxCell>
                <mxCell id="54" value="" style="endArrow=classic;html=1;fontColor=#000000;exitX=1.167;exitY=0.104;exitDx=0;exitDy=0;exitPerimeter=0;strokeWidth=2;strokeColor=#000000;fontSize=16;" edge="1" source="51" parent="1">
                    <mxGeometry width="50" height="50" relative="1" as="geometry">
                        <mxPoint x="1019" y="341" as="sourcePoint"/>
                        <mxPoint x="1479" y="26" as="targetPoint"/>
                    </mxGeometry>
                </mxCell>
                <mxCell id="55" value="服务器确认" style="text;html=1;strokeColor=none;fillColor=none;align=center;verticalAlign=middle;whiteSpace=wrap;rounded=0;fontColor=#000000;fontSize=16;" vertex="1" parent="1">
                    <mxGeometry x="1109" y="311" width="130" height="30" as="geometry"/>
                </mxCell>
                <mxCell id="56" value="&lt;font color=&quot;#ff0000&quot;&gt;服务器公钥加密pre-master&lt;/font&gt; + 服务确认" style="text;html=1;strokeColor=none;fillColor=none;align=center;verticalAlign=middle;whiteSpace=wrap;rounded=0;fontColor=#000000;fontSize=16;" vertex="1" parent="1">
                    <mxGeometry x="999" y="261" width="310" height="20" as="geometry"/>
                </mxCell>
                <mxCell id="57" value="对称加密套件列表 + 非对称加密套件列表 + &lt;font color=&quot;#ff0000&quot;&gt;tool-random&lt;/font&gt;" style="text;html=1;strokeColor=none;fillColor=none;align=center;verticalAlign=middle;whiteSpace=wrap;rounded=0;fontColor=#000000;fontSize=16;" vertex="1" parent="1">
                    <mxGeometry x="929" y="-19" width="490" height="50" as="geometry"/>
                </mxCell>
                <mxCell id="58" value="" style="endArrow=classic;html=1;strokeColor=#000000;strokeWidth=2;fontColor=#000000;exitX=-0.189;exitY=0.183;exitDx=0;exitDy=0;exitPerimeter=0;entryX=0;entryY=0.25;entryDx=0;entryDy=0;fontSize=16;" edge="1" source="52" target="50" parent="1">
                    <mxGeometry width="50" height="50" relative="1" as="geometry">
                        <mxPoint x="1019" y="221" as="sourcePoint"/>
                        <mxPoint x="1069" y="171" as="targetPoint"/>
                    </mxGeometry>
                </mxCell>
                <mxCell id="59" value="选中的对称加密套件 + 选中的非对称加密套件 +&lt;font color=&quot;#ff0000&quot;&gt;&amp;nbsp;tool-random&lt;/font&gt; + &lt;font color=&quot;#ff0000&quot;&gt;服务器数字证书&lt;/font&gt;" style="text;html=1;strokeColor=none;fillColor=none;align=center;verticalAlign=middle;whiteSpace=wrap;rounded=0;fontColor=#000000;fontSize=16;" vertex="1" parent="1">
                    <mxGeometry x="899" y="41" width="570" height="50" as="geometry"/>
                </mxCell>
                <mxCell id="60" value="" style="endArrow=classic;html=1;strokeColor=#000000;strokeWidth=2;fontColor=#000000;exitX=1;exitY=0.516;exitDx=0;exitDy=0;fontSize=16;exitPerimeter=0;" edge="1" source="51" parent="1">
                    <mxGeometry width="50" height="50" relative="1" as="geometry">
                        <mxPoint x="1019" y="301" as="sourcePoint"/>
                        <mxPoint x="1479" y="291" as="targetPoint"/>
                    </mxGeometry>
                </mxCell>
                <mxCell id="61" value="" style="shape=curlyBracket;whiteSpace=wrap;html=1;rounded=1;flipH=1;labelPosition=right;verticalLabelPosition=middle;align=left;verticalAlign=middle;strokeColor=#000000;strokeWidth=2;fontColor=#000000;fontSize=16;" vertex="1" parent="1">
                    <mxGeometry x="1489" y="291" width="40" height="70" as="geometry"/>
                </mxCell>
                <mxCell id="62" value="私钥解密加密后的&lt;br&gt;&lt;font color=&quot;#ff0000&quot;&gt;pre-master&lt;/font&gt;" style="text;html=1;strokeColor=none;fillColor=none;align=center;verticalAlign=middle;whiteSpace=wrap;rounded=0;strokeWidth=2;fontColor=#000000;fontSize=16;" vertex="1" parent="1">
                    <mxGeometry x="1509" y="311" width="190" height="40" as="geometry"/>
                </mxCell>
                <mxCell id="63" value="" style="endArrow=classic;html=1;strokeColor=#000000;strokeWidth=2;fontColor=#000000;exitX=0.121;exitY=0.624;exitDx=0;exitDy=0;exitPerimeter=0;fontSize=16;" edge="1" source="52" parent="1">
                    <mxGeometry width="50" height="50" relative="1" as="geometry">
                        <mxPoint x="899" y="371" as="sourcePoint"/>
                        <mxPoint x="844" y="360" as="targetPoint"/>
                    </mxGeometry>
                </mxCell>
                <mxCell id="64" value="tool-random + &lt;br&gt;service-random +&lt;br&gt;&amp;nbsp;pre-master&lt;br style=&quot;font-size: 16px;&quot;&gt;&amp;nbsp;生成&lt;br style=&quot;font-size: 16px;&quot;&gt;&lt;font color=&quot;#ff0000&quot;&gt;master secret2&lt;/font&gt;" style="text;html=1;strokeColor=none;fillColor=none;align=center;verticalAlign=middle;whiteSpace=wrap;rounded=0;strokeWidth=2;fontColor=#000000;fontSize=16;" vertex="1" parent="1">
                    <mxGeometry x="1509" y="391" width="180" height="90" as="geometry"/>
                </mxCell>
                <mxCell id="65" value="" style="shape=curlyBracket;whiteSpace=wrap;html=1;rounded=1;flipH=1;labelPosition=right;verticalLabelPosition=middle;align=left;verticalAlign=middle;strokeColor=#000000;strokeWidth=2;fontColor=#000000;fontSize=16;" vertex="1" parent="1">
                    <mxGeometry x="1489" y="371" width="40" height="120" as="geometry"/>
                </mxCell>
                <mxCell id="66" value="" style="endArrow=classic;html=1;strokeColor=#000000;strokeWidth=2;fontColor=#000000;fontSize=16;entryX=-0.166;entryY=0.833;entryDx=0;entryDy=0;entryPerimeter=0;" edge="1" target="52" parent="1">
                    <mxGeometry width="50" height="50" relative="1" as="geometry">
                        <mxPoint x="849" y="493.99999999999955" as="sourcePoint"/>
                        <mxPoint x="1469" y="491" as="targetPoint"/>
                    </mxGeometry>
                </mxCell>
                <mxCell id="67" value="" style="endArrow=classic;html=1;strokeColor=#000000;strokeWidth=2;fontColor=#000000;exitX=-0.548;exitY=0.933;exitDx=0;exitDy=0;exitPerimeter=0;entryX=1;entryY=0.933;entryDx=0;entryDy=0;entryPerimeter=0;fontSize=16;" edge="1" source="52" target="51" parent="1">
                    <mxGeometry width="50" height="50" relative="1" as="geometry">
                        <mxPoint x="1009" y="481" as="sourcePoint"/>
                        <mxPoint x="1059" y="431" as="targetPoint"/>
                    </mxGeometry>
                </mxCell>
                <mxCell id="68" value="传输使用master secret2 加密的数据" style="text;html=1;strokeColor=none;fillColor=none;align=center;verticalAlign=middle;whiteSpace=wrap;rounded=0;strokeWidth=2;fontColor=#000000;fontSize=16;" vertex="1" parent="1">
                    <mxGeometry x="964" y="531" width="400" height="20" as="geometry"/>
                </mxCell>
                <mxCell id="30" value="" style="rounded=0;whiteSpace=wrap;html=1;strokeColor=none;strokeWidth=2;fontSize=16;fillColor=#b1ddf0;" parent="1" vertex="1">
                    <mxGeometry x="210" y="470" width="630" height="130" as="geometry"/>
                </mxCell>
                <mxCell id="29" value="" style="rounded=0;whiteSpace=wrap;html=1;strokeColor=none;strokeWidth=2;fontSize=16;fillColor=#ffcccc;" parent="1" vertex="1">
                    <mxGeometry x="210" y="-30" width="630" height="430" as="geometry"/>
                </mxCell>
                <mxCell id="2" value="" style="rounded=0;whiteSpace=wrap;html=1;fillColor=#1ba1e2;fontColor=#000000;strokeColor=#006EAF;fontSize=16;" parent="1" vertex="1">
                    <mxGeometry x="200" y="-40" width="10" height="640" as="geometry"/>
                </mxCell>
                <mxCell id="3" value="" style="rounded=0;whiteSpace=wrap;html=1;fillColor=#1ba1e2;fontColor=#000000;strokeColor=#006EAF;fontSize=16;" parent="1" vertex="1">
                    <mxGeometry x="840" y="-40" width="10" height="640" as="geometry"/>
                </mxCell>
                <mxCell id="4" value="&lt;font style=&quot;font-size: 24px;&quot;&gt;浏览器&lt;/font&gt;" style="text;html=1;strokeColor=none;fillColor=none;align=center;verticalAlign=middle;whiteSpace=wrap;rounded=0;fontColor=#000000;fontSize=16;" parent="1" vertex="1">
                    <mxGeometry x="150" y="-50" width="40" height="130" as="geometry"/>
                </mxCell>
                <mxCell id="5" value="抓包工具" style="text;html=1;strokeColor=none;fillColor=none;align=center;verticalAlign=middle;whiteSpace=wrap;rounded=0;fontColor=#000000;fontSize=24;" parent="1" vertex="1">
                    <mxGeometry x="860" y="-40" width="40" height="130" as="geometry"/>
                </mxCell>
                <mxCell id="6" value="" style="endArrow=classic;html=1;fontColor=#000000;exitX=1.167;exitY=0.104;exitDx=0;exitDy=0;exitPerimeter=0;strokeWidth=2;strokeColor=#000000;fontSize=16;" parent="1" source="2" edge="1">
                    <mxGeometry width="50" height="50" relative="1" as="geometry">
                        <mxPoint x="380" y="340" as="sourcePoint"/>
                        <mxPoint x="840" y="25" as="targetPoint"/>
                    </mxGeometry>
                </mxCell>
                <mxCell id="9" value="抓包工具确认" style="text;html=1;strokeColor=none;fillColor=none;align=center;verticalAlign=middle;whiteSpace=wrap;rounded=0;fontColor=#000000;fontSize=16;" parent="1" vertex="1">
                    <mxGeometry x="470" y="323" width="130" height="30" as="geometry"/>
                </mxCell>
                <mxCell id="10" value="&lt;font color=&quot;#ff0000&quot;&gt;抓包工具公钥加密pre-master&lt;/font&gt; + 抓包工具确认" style="text;html=1;strokeColor=none;fillColor=none;align=center;verticalAlign=middle;whiteSpace=wrap;rounded=0;fontColor=#000000;fontSize=16;" parent="1" vertex="1">
                    <mxGeometry x="350" y="261" width="350" height="20" as="geometry"/>
                </mxCell>
                <mxCell id="11" value="对称加密套件列表 + 非对称加密套件列表 + &lt;font color=&quot;#ff0000&quot;&gt;client-random&lt;/font&gt;" style="text;html=1;strokeColor=none;fillColor=none;align=center;verticalAlign=middle;whiteSpace=wrap;rounded=0;fontColor=#000000;fontSize=16;" parent="1" vertex="1">
                    <mxGeometry x="290" y="-20" width="490" height="50" as="geometry"/>
                </mxCell>
                <mxCell id="12" value="" style="endArrow=classic;html=1;strokeColor=#000000;strokeWidth=2;fontColor=#000000;exitX=-0.189;exitY=0.183;exitDx=0;exitDy=0;exitPerimeter=0;entryX=0;entryY=0.25;entryDx=0;entryDy=0;fontSize=16;" parent="1" source="3" target="29" edge="1">
                    <mxGeometry width="50" height="50" relative="1" as="geometry">
                        <mxPoint x="380" y="220" as="sourcePoint"/>
                        <mxPoint x="430" y="170" as="targetPoint"/>
                    </mxGeometry>
                </mxCell>
                <mxCell id="13" value="选中的对称加密套件 + 选中的非对称加密套件 +&lt;font color=&quot;#ff0000&quot;&gt;&amp;nbsp;tool-random&lt;/font&gt; + &lt;font color=&quot;#ff0000&quot;&gt;工具数字证书&lt;/font&gt;" style="text;html=1;strokeColor=none;fillColor=none;align=center;verticalAlign=middle;whiteSpace=wrap;rounded=0;fontColor=#000000;fontSize=16;" parent="1" vertex="1">
                    <mxGeometry x="260" y="40" width="570" height="50" as="geometry"/>
                </mxCell>
                <mxCell id="14" value="" style="shape=curlyBracket;whiteSpace=wrap;html=1;rounded=1;labelPosition=left;verticalLabelPosition=middle;align=right;verticalAlign=middle;fontColor=#000000;strokeColor=#000000;strokeWidth=2;fontSize=16;" parent="1" vertex="1">
                    <mxGeometry x="160" y="80" width="40" height="80" as="geometry"/>
                </mxCell>
                <mxCell id="15" value="验证数字证书" style="text;html=1;strokeColor=none;fillColor=none;align=center;verticalAlign=middle;whiteSpace=wrap;rounded=0;strokeWidth=2;fontColor=#000000;fontSize=16;" parent="1" vertex="1">
                    <mxGeometry x="60" y="107.5" width="100" height="25" as="geometry"/>
                </mxCell>
                <mxCell id="16" value="" style="shape=curlyBracket;whiteSpace=wrap;html=1;rounded=1;labelPosition=left;verticalLabelPosition=middle;align=right;verticalAlign=middle;strokeColor=#000000;strokeWidth=2;fontColor=#000000;fontSize=16;" parent="1" vertex="1">
                    <mxGeometry x="160" y="170" width="40" height="120" as="geometry"/>
                </mxCell>
                <mxCell id="17" value="生成随机数 &lt;br&gt;&lt;font color=&quot;#ff0000&quot;&gt;pre-master&lt;/font&gt;" style="text;html=1;strokeColor=none;fillColor=none;align=center;verticalAlign=middle;whiteSpace=wrap;rounded=0;strokeWidth=2;fontColor=#000000;fontSize=16;" parent="1" vertex="1">
                    <mxGeometry x="40" y="215" width="140" height="30" as="geometry"/>
                </mxCell>
                <mxCell id="18" value="" style="endArrow=classic;html=1;strokeColor=#000000;strokeWidth=2;fontColor=#000000;exitX=1;exitY=0.516;exitDx=0;exitDy=0;fontSize=16;exitPerimeter=0;" parent="1" source="2" edge="1">
                    <mxGeometry width="50" height="50" relative="1" as="geometry">
                        <mxPoint x="380" y="300" as="sourcePoint"/>
                        <mxPoint x="840" y="290" as="targetPoint"/>
                    </mxGeometry>
                </mxCell>
                <mxCell id="19" value="" style="shape=curlyBracket;whiteSpace=wrap;html=1;rounded=1;flipH=1;labelPosition=right;verticalLabelPosition=middle;align=left;verticalAlign=middle;strokeColor=#000000;strokeWidth=2;fontColor=#000000;fontSize=16;" parent="1" vertex="1">
                    <mxGeometry x="850" y="290" width="40" height="70" as="geometry"/>
                </mxCell>
                <mxCell id="20" value="私钥解密加密后的&lt;br&gt;&lt;font color=&quot;#ff0000&quot;&gt;pre-master&lt;/font&gt;" style="text;html=1;strokeColor=none;fillColor=none;align=center;verticalAlign=middle;whiteSpace=wrap;rounded=0;strokeWidth=2;fontColor=#000000;fontSize=16;" parent="1" vertex="1">
                    <mxGeometry x="870" y="310" width="190" height="40" as="geometry"/>
                </mxCell>
                <mxCell id="21" value="" style="endArrow=classic;html=1;strokeColor=#000000;strokeWidth=2;fontColor=#000000;exitX=-0.458;exitY=0.629;exitDx=0;exitDy=0;exitPerimeter=0;fontSize=16;entryX=1.042;entryY=0.632;entryDx=0;entryDy=0;entryPerimeter=0;" parent="1" source="3" target="2" edge="1">
                    <mxGeometry width="50" height="50" relative="1" as="geometry">
                        <mxPoint x="260" y="370" as="sourcePoint"/>
                        <mxPoint x="220" y="363" as="targetPoint"/>
                    </mxGeometry>
                </mxCell>
                <mxCell id="22" value="" style="shape=curlyBracket;whiteSpace=wrap;html=1;rounded=1;labelPosition=left;verticalLabelPosition=middle;align=right;verticalAlign=middle;strokeColor=#000000;strokeWidth=2;fontColor=#000000;fontSize=16;" parent="1" vertex="1">
                    <mxGeometry x="160" y="300" width="40" height="190" as="geometry"/>
                </mxCell>
                <mxCell id="23" value="client-random + &lt;br&gt;tool-random +&lt;br&gt;&amp;nbsp;pre-master&lt;br style=&quot;font-size: 16px;&quot;&gt;&amp;nbsp;生成&lt;br style=&quot;font-size: 16px;&quot;&gt;&lt;font color=&quot;#ff0000&quot;&gt;master secret1&lt;/font&gt;" style="text;html=1;strokeColor=none;fillColor=none;align=center;verticalAlign=middle;whiteSpace=wrap;rounded=0;strokeWidth=2;fontColor=#000000;fontSize=16;" parent="1" vertex="1">
                    <mxGeometry x="10" y="340" width="160" height="100" as="geometry"/>
                </mxCell>
                <mxCell id="24" value="与浏览器通信：&lt;br&gt;client-random + &lt;br&gt;tool-random +&lt;br&gt;&amp;nbsp;pre-master&lt;br style=&quot;font-size: 16px;&quot;&gt;&amp;nbsp;生成&lt;br style=&quot;font-size: 16px;&quot;&gt;&lt;font color=&quot;#ff0000&quot;&gt;master secret1&lt;/font&gt;" style="text;html=1;strokeColor=none;fillColor=none;align=center;verticalAlign=middle;whiteSpace=wrap;rounded=0;strokeWidth=2;fontColor=#000000;fontSize=16;" parent="1" vertex="1">
                    <mxGeometry x="870" y="390" width="220" height="90" as="geometry"/>
                </mxCell>
                <mxCell id="25" value="" style="shape=curlyBracket;whiteSpace=wrap;html=1;rounded=1;flipH=1;labelPosition=right;verticalLabelPosition=middle;align=left;verticalAlign=middle;strokeColor=#000000;strokeWidth=2;fontColor=#000000;fontSize=16;" parent="1" vertex="1">
                    <mxGeometry x="850" y="370" width="40" height="120" as="geometry"/>
                </mxCell>
                <mxCell id="26" value="" style="endArrow=classic;html=1;strokeColor=#000000;strokeWidth=2;fontColor=#000000;fontSize=16;entryX=-0.166;entryY=0.833;entryDx=0;entryDy=0;entryPerimeter=0;" parent="1" target="3" edge="1">
                    <mxGeometry width="50" height="50" relative="1" as="geometry">
                        <mxPoint x="210" y="493" as="sourcePoint"/>
                        <mxPoint x="830" y="490" as="targetPoint"/>
                    </mxGeometry>
                </mxCell>
                <mxCell id="27" value="" style="endArrow=classic;html=1;strokeColor=#000000;strokeWidth=2;fontColor=#000000;exitX=-0.548;exitY=0.933;exitDx=0;exitDy=0;exitPerimeter=0;entryX=1;entryY=0.933;entryDx=0;entryDy=0;entryPerimeter=0;fontSize=16;" parent="1" source="3" target="2" edge="1">
                    <mxGeometry width="50" height="50" relative="1" as="geometry">
                        <mxPoint x="370" y="480" as="sourcePoint"/>
                        <mxPoint x="420" y="430" as="targetPoint"/>
                    </mxGeometry>
                </mxCell>
                <mxCell id="28" value="传输使用master secret1 加密的数据" style="text;html=1;strokeColor=none;fillColor=none;align=center;verticalAlign=middle;whiteSpace=wrap;rounded=0;strokeWidth=2;fontColor=#000000;fontSize=16;" parent="1" vertex="1">
                    <mxGeometry x="325" y="530" width="400" height="20" as="geometry"/>
                </mxCell>
                <mxCell id="38" value="" style="group" vertex="1" connectable="0" parent="1">
                    <mxGeometry x="1520" y="517" width="250" height="83" as="geometry"/>
                </mxCell>
                <mxCell id="34" value="" style="rounded=0;whiteSpace=wrap;html=1;dashed=1;strokeColor=none;strokeWidth=2;fontSize=16;fillColor=#f8cecc;" parent="38" vertex="1">
                    <mxGeometry width="120" height="35" as="geometry"/>
                </mxCell>
                <mxCell id="35" value="" style="rounded=0;whiteSpace=wrap;html=1;dashed=1;strokeColor=none;strokeWidth=2;fontSize=16;fillColor=#b1ddf0;" parent="38" vertex="1">
                    <mxGeometry y="45" width="120" height="38" as="geometry"/>
                </mxCell>
                <mxCell id="36" value="安全层握手协商" style="text;html=1;strokeColor=none;fillColor=none;align=center;verticalAlign=middle;whiteSpace=wrap;rounded=0;dashed=1;strokeWidth=2;fontSize=16;fontColor=#000000;" parent="38" vertex="1">
                    <mxGeometry x="120" width="130" height="35" as="geometry"/>
                </mxCell>
                <mxCell id="37" value="传输数据" style="text;html=1;strokeColor=none;fillColor=none;align=center;verticalAlign=middle;whiteSpace=wrap;rounded=0;dashed=1;strokeWidth=2;fontSize=16;fontColor=#000000;" parent="38" vertex="1">
                    <mxGeometry x="100" y="48" width="130" height="35" as="geometry"/>
                </mxCell>
                <mxCell id="71" value="与服务器通信：&lt;br&gt;tool-random + &lt;br&gt;service-random +&lt;br&gt;&amp;nbsp;pre-master&lt;br style=&quot;font-size: 16px;&quot;&gt;&amp;nbsp;生成&lt;br style=&quot;font-size: 16px;&quot;&gt;&lt;font color=&quot;#ff0000&quot;&gt;master secret2&lt;/font&gt;" style="text;html=1;strokeColor=none;fillColor=none;align=center;verticalAlign=middle;whiteSpace=wrap;rounded=0;strokeWidth=2;fontColor=#000000;fontSize=16;" vertex="1" parent="1">
                    <mxGeometry x="1060" y="380.5" width="180" height="111" as="geometry"/>
                </mxCell>
            </root>
        </mxGraphModel>
    </diagram>
</mxfile>